<svg width="32" height="32" viewBox="0 0 32 32" fill="none" xmlns="http://www.w3.org/2000/svg">
<path d="M1.33331 14.6667V17.3333C1.33331 17.3333 3.99998 17.3333 3.99998 22.6667V24C3.99998 25.0609 4.42141 26.0783 5.17155 26.8284C5.9217 27.5786 6.93911 28 7.99998 28H24C25.0608 28 26.0783 27.5786 26.8284 26.8284C27.5786 26.0783 28 25.0609 28 24V22.6667C28 17.3333 30.6666 17.3333 30.6666 17.3333V14.6667C30.6666 14.6667 28 14.6667 28 9.33333V8C28 6.93913 27.5786 5.92172 26.8284 5.17157C26.0783 4.42143 25.0608 4 24 4H7.99998C6.93911 4 5.9217 4.42143 5.17155 5.17157C4.42141 5.92172 3.99998 6.93913 3.99998 8V9.33333C3.99998 14.6667 1.33331 14.6667 1.33331 14.6667ZM27.5653 16C27.5253 16.0373 27.4862 16.0756 27.448 16.1147C26.104 17.4573 25.3333 19.5893 25.3333 22.6667V24C25.3333 24.3536 25.1928 24.6928 24.9428 24.9428C24.6927 25.1929 24.3536 25.3333 24 25.3333H7.99998C7.64636 25.3333 7.30722 25.1929 7.05717 24.9428C6.80712 24.6928 6.66665 24.3536 6.66665 24V22.6667C6.66665 19.5893 5.89598 17.4573 4.55198 16.1147L4.43465 16C4.47465 15.9627 4.51376 15.9244 4.55198 15.8853C5.89598 14.5427 6.66665 12.4107 6.66665 9.33333V8C6.66665 7.64638 6.80712 7.30724 7.05717 7.05719C7.30722 6.80714 7.64636 6.66667 7.99998 6.66667H24C24.3536 6.66667 24.6927 6.80714 24.9428 7.05719C25.1928 7.30724 25.3333 7.64638 25.3333 8V9.33333C25.3333 12.4107 26.104 14.5427 27.448 15.8853L27.5653 16ZM11.3333 9.33333V22.6667H18C18.8655 22.667 19.7077 22.3867 20.4004 21.8676C21.093 21.3486 21.5985 20.619 21.8412 19.7882C22.0839 18.9574 22.0505 18.0703 21.7462 17.2601C21.4419 16.4499 20.8829 15.7602 20.1533 15.2947C20.4958 14.686 20.6729 13.9982 20.667 13.2998C20.6612 12.6014 20.4726 11.9167 20.12 11.3139C19.7674 10.711 19.263 10.211 18.6572 9.86349C18.0513 9.51602 17.3651 9.33324 16.6666 9.33333H11.3333ZM14 14.6667V12H16.6666C17.0203 12 17.3594 12.1405 17.6095 12.3905C17.8595 12.6406 18 12.9797 18 13.3333C18 13.687 17.8595 14.0261 17.6095 14.2761C17.3594 14.5262 17.0203 14.6667 16.6666 14.6667H14ZM14 17.3333H18C18.3536 17.3333 18.6927 17.4738 18.9428 17.7239C19.1928 17.9739 19.3333 18.313 19.3333 18.6667C19.3333 19.0203 19.1928 19.3594 18.9428 19.6095C18.6927 19.8595 18.3536 20 18 20H14V17.3333Z" fill="#0181FF"/>
</svg>
