<svg width="32" height="32" viewBox="0 0 32 32" fill="none" xmlns="http://www.w3.org/2000/svg">
<g clip-path="url(#clip0_407_268)">
<path d="M15.9456 0C8.3904 0 8.30924 2.93265 8.30924 3.53629C8.30924 4.45207 8.30924 7.2 8.30924 7.2H16.0911V8.29993C16.0911 8.29993 7.98866 8.29993 5.21833 8.29993C2.90589 8.29993 0 9.70589 0 15.9363C0 21.6593 2.26676 23.8726 4.55447 23.8726C5.23375 23.8726 7.27273 23.8726 7.27273 23.8726C7.27273 23.8726 7.27273 21.0319 7.27273 20.0544C7.27273 18.457 8.06429 15.4999 11.7545 15.4999C16.3828 15.4999 17.5642 15.4999 19.4726 15.4999C20.6077 15.4999 23.8089 15.0065 23.8089 11.3091C23.8089 7.39578 23.8089 6.10473 23.8089 4.26356C23.8092 3.34633 23.6524 0 15.9456 0ZM11.6547 2.46371C12.4291 2.46371 13.0548 3.08916 13.0548 3.86385C13.0548 4.63796 12.4291 5.264 11.6547 5.264C10.8803 5.264 10.2545 4.63825 10.2545 3.86385C10.2545 3.08916 10.8803 2.46371 11.6547 2.46371Z" fill="#0181FF"/>
<path d="M16.0544 32C23.6061 32 23.7001 29.0121 23.7001 28.4637C23.7001 27.548 23.7001 24.8 23.7001 24.8H15.909V23.7001C15.909 23.7001 24.0637 23.7001 26.7817 23.7001C29.1116 23.7001 32 22.2589 32 16.0637C32 9.27915 28.9344 8.12744 27.4455 8.12744C26.766 8.12744 24.7273 8.12744 24.7273 8.12744C24.7273 8.12744 24.7273 11.0994 24.7273 11.9456C24.7273 13.543 23.9619 16.5001 20.2455 16.5001C15.6172 16.5001 14.5798 16.5001 12.5271 16.5001C11.3949 16.5001 8.19086 17.0517 8.19086 20.6909C8.19086 24.9018 8.19086 26.0044 8.19086 27.7365C8.19086 29.2579 9.1206 32 16.0544 32ZM20.3456 29.5363C19.5712 29.5363 18.9455 28.9106 18.9455 28.1362C18.9455 27.3618 19.5709 26.736 20.3456 26.736C21.1197 26.736 21.7458 27.3618 21.7458 28.1362C21.7458 28.9106 21.1197 29.5363 20.3456 29.5363Z" fill="#0181FF"/>
</g>
<defs>
<clipPath id="clip0_407_268">
<rect width="32" height="32" fill="white"/>
</clipPath>
</defs>
</svg>
