<svg width="33" height="19" viewBox="0 0 33 19" fill="none" xmlns="http://www.w3.org/2000/svg">
<g clip-path="url(#clip0_406_263)">
<path fill-rule="evenodd" clip-rule="evenodd" d="M16.9239 0.547119C12.665 0.547119 10.0119 2.54468 8.94137 6.5398C10.5472 4.54224 12.409 3.7959 14.5501 4.27883C15.7603 4.56419 16.6446 5.39834 17.5988 6.29834C19.1581 7.81297 20.9734 9.54712 24.9297 9.54712C29.1886 9.54712 31.865 7.54956 32.9355 3.55444C31.3297 5.552 29.4679 6.29834 27.3501 5.79346C26.1399 5.50809 25.2555 4.67395 24.3014 3.77395C22.7188 2.28127 20.9035 0.547119 16.9239 0.547119ZM8.94137 9.54712C4.65918 9.54712 2.00609 11.5447 0.935547 15.5398C2.54137 13.5422 4.40318 12.7959 6.54427 13.2788C7.75446 13.5642 8.63882 14.3983 9.593 15.2983C11.1523 16.813 12.9675 18.5471 16.9239 18.5471C21.1828 18.5471 23.8592 16.5496 24.9297 12.5544C23.3239 14.552 21.4621 15.2983 19.321 14.7935C18.1108 14.5081 17.2265 13.6739 16.2723 12.7739C14.713 11.2813 12.8977 9.54712 8.94137 9.54712Z" fill="#0181FF"/>
</g>
<defs>
<clipPath id="clip0_406_263">
<rect width="32" height="18" fill="white" transform="translate(0.935547 0.547119)"/>
</clipPath>
</defs>
</svg>
